# Blender v2.93.5 OBJ File: ''
# www.blender.org
o Cube_Cube.002
v 5.950066 8.192229 -8.604037
v 5.950066 9.349227 -8.604036
v 11.993354 9.349228 -9.035817
v 13.147573 9.349225 7.051435
v 12.759602 9.349226 1.688738
v 12.667582 10.149796 0.400959
v 12.980520 10.834426 4.780748
v 12.376478 9.349227 -3.673541
v 12.466284 10.149796 -2.416441
v -17.773594 9.349226 -0.585769
v -17.523201 9.349226 2.918777
v -17.548832 10.149796 2.559862
v -17.750130 10.149796 -0.257538
v 12.666434 12.797903 0.384938
v 12.726414 13.161091 1.224226
v 12.565000 14.635716 -1.034949
v 12.565362 14.635716 -1.029875
v 12.465355 12.797903 -2.429407
v 12.564637 14.635716 -1.040023
v -17.751053 12.797903 -0.270504
v -17.549974 12.797903 2.543841
v -17.651436 14.635716 1.123956
v -17.651798 14.635716 1.118882
v -17.395849 8.192227 4.701200
v -17.523201 8.192228 2.918777
v -17.773594 8.192228 -0.585770
v -17.523201 0.064116 2.918775
v -17.523201 0.677450 2.918775
v -18.918781 0.677450 3.018486
v -18.918781 0.064116 3.018486
v -17.395849 0.064115 4.701198
v -17.523201 1.319650 2.918775
v -17.773594 0.064116 -0.585771
v -17.773594 0.665788 -0.585771
v -17.901073 0.064116 -2.370034
v -17.811415 13.161091 -1.115141
v -17.652161 14.635716 1.113808
v -18.062685 10.834428 -4.631978
v -18.223083 9.349227 -6.876913
v 12.153749 10.834428 -6.790883
v 12.405021 13.161092 -3.274046
v 12.564275 14.635716 -1.045097
v -17.901073 8.192228 -2.370033
v -18.143003 8.192229 -5.756124
v -17.153522 8.218716 8.092841
v -17.068863 9.349224 9.210340
v -17.235916 10.834426 6.939653
v -17.490023 13.161090 3.383131
v -17.651073 14.635716 1.129029
v -17.068863 0.064115 9.210338
v -17.153522 2.820831 8.092840
v -17.395849 2.820831 4.701199
v -17.901073 2.820832 -2.370034
v -18.143003 2.820833 -5.756124
v -18.223083 0.064117 -6.876914
v -17.773594 1.319650 -0.585771
v 5.950066 0.064117 -8.604038
v 5.950066 2.820833 -8.604038
v 11.993354 0.064117 -9.035819
v 12.759602 0.064116 1.688736
v 12.759602 5.319118 1.688737
v 13.147573 0.064115 7.051433
v 12.376478 5.321033 -3.673541
v 12.376478 0.064117 -3.673542
v -17.320583 8.192228 2.904299
v -17.320583 1.319650 2.904298
v -17.570976 8.192228 -0.600247
v -17.570976 1.319650 -0.600248
v -18.319582 1.319650 2.975675
v -18.319582 0.677450 2.975675
v -19.169174 0.665788 -0.486060
v -19.169174 0.064116 -0.486060
v -18.569975 0.665788 -0.528871
v -18.569975 1.319650 -0.528871
v -12.179797 8.192229 -7.308693
v -12.179797 2.820833 -7.308694
v -7.727202 2.820833 -7.626822
v -7.727202 8.192229 -7.626822
v 1.497471 8.192229 -8.285907
v 1.497471 2.820833 -8.285908
v -12.179797 0.064117 -7.308695
v -7.727202 0.064118 -7.626823
v 1.497471 0.064118 -8.285908
v -12.179797 9.349227 -7.308693
v -7.727202 9.349227 -7.626822
v 1.497471 9.349227 -8.285906
v 6.874008 7.581104 7.500433
v 6.857374 7.581104 7.267626
v 10.248719 7.581104 7.025322
v 10.265352 7.581104 7.258131
v 6.233222 0.453863 7.546214
v 6.874008 0.940049 7.500432
v -6.568130 0.064116 8.460846
v -6.568131 2.236660 8.460846
v -11.020725 2.236660 8.778976
v -11.020725 7.581104 8.778977
v 10.265352 0.940049 7.258129
v -11.020725 0.064115 8.778976
v 10.265352 9.349225 7.258131
v 6.874008 9.349225 7.500433
v -11.020725 9.349225 8.778978
v -6.568131 7.581104 8.460847
v -6.568131 9.349225 8.460848
v 6.874008 0.064116 7.500433
v 6.935459 0.064116 8.360510
v 6.935458 0.482586 8.360508
v 6.874008 0.482586 7.500432
v 10.265352 0.064115 7.258129
v 10.265352 0.491577 7.258129
v 6.857374 0.940049 7.267625
v 10.248719 0.940049 7.025321
v 6.900082 0.482586 7.865364
v 6.900082 0.940050 7.865362
v 10.326803 0.064116 8.118205
v 10.326803 0.491577 8.118205
v 10.291426 0.491577 7.623059
v 10.291426 0.940050 7.623059
v 13.330576 6.083645 -3.801145
v 14.156281 6.083645 -3.079941
v 14.315139 5.832798 -3.315829
v 13.394239 5.832798 -4.120180
v 12.504873 6.083646 -4.522348
v 12.473340 5.832799 -4.924531
v 13.681919 6.083644 1.639368
v 12.955835 6.083644 2.460784
v 12.976295 5.832798 2.863683
v 13.786089 5.832798 1.947565
v 14.486510 6.083645 -1.144193
v 12.522016 7.798086 -1.082650
v 12.533038 7.798086 -1.018039
v 14.408002 6.083645 0.817951
v 12.530417 7.798086 -0.952548
v 12.506183 7.798086 -0.925131
v 12.481948 7.798086 -0.897715
v 12.066000 6.083646 -4.494007
v 12.452247 7.798086 -1.129847
v 12.466896 7.798086 -1.130793
v 12.494456 7.798086 -1.106721
v 12.516963 6.083644 2.489126
v 12.467299 7.798086 -0.896769
v 13.786089 5.681016 1.947565
v 14.595881 5.681017 1.031448
v 14.595881 5.832798 1.031448
v 12.976295 5.681016 2.863683
v 12.473340 5.681018 -4.924531
v 11.983871 5.681018 -4.892922
v 11.983871 5.832799 -4.892922
v 14.315139 5.681017 -3.315829
v 13.394239 5.681017 -4.120180
v 12.486825 5.681016 2.895292
v 12.486825 5.832798 2.895292
v 14.683440 5.681017 -1.156910
v 14.683440 5.832798 -1.156910
v 13.099825 5.681016 1.743390
v 13.679269 5.681017 1.087866
v 12.739939 5.681017 -3.829433
v 12.389701 5.681017 -3.806815
v 14.057830 5.681017 -2.678333
v 13.398884 5.681017 -3.253883
v 14.258716 5.681017 0.432342
v 14.321367 5.681017 -1.133528
v 12.749588 5.681016 1.766008
v 13.757789 5.804492 1.236100
v 13.137595 5.804492 1.937724
v 13.137595 5.132815 1.937724
v 14.377982 5.132816 0.534477
v 13.137595 0.073081 1.937723
v 12.762728 5.804492 1.961932
v 12.762728 0.073081 1.961931
v 14.371156 5.132816 -2.285628
v 14.518928 5.132816 0.002602
v 14.455430 4.951208 -0.108711
v 14.322503 4.951209 -2.167072
v 13.457684 5.804492 -3.410982
v 14.162971 5.804492 -2.794956
v 14.162971 5.132816 -2.794956
v 12.752399 5.132816 -4.027008
v 14.371156 0.073081 -2.285629
v 14.371156 5.804492 -2.285628
v 14.377982 0.073081 0.534476
v 14.377982 5.804492 0.534477
v 14.445043 5.804492 -1.141513
v 14.518928 5.804492 0.002602
v 14.156323 5.002056 0.427879
v 14.156323 1.647940 0.427878
v 13.005652 5.002056 1.729630
v 12.752399 0.073082 -4.027009
v 12.670440 5.002057 -3.805100
v 12.670440 1.647941 -3.805101
v 14.322503 1.698788 -2.167073
v 13.978984 5.002057 -2.662163
v 14.518928 1.517180 0.002601
v 14.371156 1.517180 -2.285629
v 14.455430 1.698788 -0.108712
v 14.518928 0.073081 0.002601
v 13.137595 1.517180 1.937723
v 14.377982 1.517180 0.534476
v 13.005652 1.647940 1.729629
v 14.162971 0.073081 -2.794957
v 12.752399 1.517181 -4.027009
v 14.162971 1.517180 -2.794957
v 12.752399 5.804492 -4.027008
v 13.978984 1.647941 -2.662164
v 12.377531 0.073082 -4.002800
v 12.377531 5.804492 -4.002799
v 10.739331 7.406230 8.282027
v 10.741745 7.503732 8.315815
v 10.758910 7.420060 8.556043
v 10.756496 7.322557 8.522255
v 6.833436 7.322557 8.802549
v 6.835850 7.420060 8.836337
v 6.614320 7.420060 8.852165
v 6.611906 7.322557 8.818377
v 6.594743 7.406230 8.578151
v 6.597157 7.503732 8.611939
v 6.496057 7.996586 7.196937
v 6.493643 7.899085 7.163148
v 10.520217 7.503732 8.331642
v 10.640646 7.996586 6.900813
v 10.419117 7.996586 6.916640
v 6.818685 7.503732 8.596110
v 6.717586 7.996586 7.181108
v 6.715172 7.899085 7.147320
v 6.816271 7.406230 8.562323
v 6.736633 7.090041 7.447695
v 6.728862 7.437431 7.338926
v 10.517803 7.406230 8.297855
v 10.416703 7.899085 6.882853
v 10.537381 7.420060 8.571870
v 10.534967 7.322557 8.538082
v 10.638232 7.899085 6.867024
v 6.515104 7.090041 7.463523
v 6.507333 7.437431 7.354754
v 10.438166 7.090041 7.183228
v 10.659694 7.090041 7.167399
v 10.651922 7.437432 7.058631
v 10.430394 7.437432 7.074460
v -18.531052 8.134082 3.326154
v -18.564838 8.231584 3.328568
v -18.805065 8.147911 3.345731
v -18.771278 8.050410 3.343318
v -19.051573 8.050411 -0.579744
v -19.085360 8.147912 -0.577330
v -19.101189 8.147912 -0.798859
v -19.067402 8.050411 -0.801273
v -18.827175 8.134083 -0.818437
v -18.860962 8.231585 -0.816023
v -17.445959 8.724439 -0.917122
v -17.412172 8.626937 -0.919536
v -18.580666 8.231584 3.107038
v -17.149836 8.724438 3.227468
v -17.165663 8.724438 3.005939
v -18.845133 8.231585 -0.594494
v -17.430130 8.724439 -0.695593
v -17.396343 8.626937 -0.698007
v -18.811346 8.134083 -0.596908
v -17.696718 7.817894 -0.676546
v -17.587950 8.165285 -0.684317
v -18.546879 8.134082 3.104623
v -17.131876 8.626936 3.003525
v -18.820892 8.147911 3.124202
v -18.787106 8.050410 3.121788
v -17.116049 8.626936 3.225055
v -17.712545 7.817894 -0.898075
v -17.603779 8.165285 -0.905846
v -17.432251 7.817894 3.024985
v -17.416424 7.817894 3.246515
v -17.307655 8.165284 3.238744
v -17.323483 8.165284 3.017215
v -5.245152 9.703708 7.897086
v -5.245152 12.033154 7.897086
v -5.570631 12.033154 3.341621
v -5.301750 9.703708 7.104923
v -0.361134 9.703708 6.751926
v -0.630015 12.033154 2.988624
v -0.304536 12.033154 7.544088
v -0.304536 9.703708 7.544087
v -5.245152 12.168392 7.897086
v -2.774844 14.238722 7.720587
v -3.277872 14.238723 0.680118
v -5.570631 12.168392 3.341621
v -5.706741 11.638499 7.930065
v -5.993761 11.638499 3.912880
v -5.218587 12.033154 8.268883
v -2.748280 14.103484 8.092384
v -2.748280 14.238722 8.092384
v -5.218587 12.168392 8.268883
v -0.277972 12.033154 7.915886
v -0.277972 12.168392 7.915886
v -2.774844 14.103484 7.720587
v 0.157053 11.638499 7.511109
v -0.129967 11.638499 3.493924
v -0.129967 11.773738 3.493924
v 0.157053 11.773738 7.511109
v -5.706741 11.773738 7.930065
v -5.993761 11.773738 3.912880
v -5.680177 11.638499 8.301863
v -5.680177 11.773738 8.301863
v 0.183617 11.773738 7.882907
v 0.183617 11.638499 7.882907
v -3.713624 12.817445 7.787661
v -2.776458 14.103484 7.720702
v -2.779686 14.103484 7.720933
v -4.012419 13.068319 7.809009
v -3.598280 9.703708 7.779419
v -3.710227 11.075171 7.787418
v -5.245152 12.033154 7.897086
v -5.245152 9.703708 7.897086
v -0.304536 9.703708 7.544087
v -0.304536 12.033154 7.544088
v -1.839461 11.075171 7.653756
v -1.951408 9.703708 7.661754
v -1.537269 13.068319 7.632165
v -2.770002 14.103484 7.720242
v -2.773230 14.103484 7.720471
v -1.836064 12.817445 7.653513
v -0.630015 12.168392 2.988624
v -3.277872 14.238723 0.680118
v -2.774844 14.238722 7.720587
v -0.304536 12.168392 7.544088
v -0.277972 12.168392 7.915886
v 0.183617 11.773738 7.882907
v 0.157053 11.773738 7.511109
v -2.748280 14.238722 8.092384
v -0.129967 11.773738 3.493924
v 12.861259 8.780826 -10.300345
v -19.247341 8.780825 -8.006249
v -18.588541 14.737866 1.214439
v 13.520060 14.737866 -1.079657
v -17.929741 8.780822 10.435127
v 14.178860 8.780823 8.141031
v 12.878120 8.631657 -10.064357
v 13.520060 14.525741 -1.079657
v -18.588541 14.525741 1.214439
v -19.230480 8.631656 -7.770260
v -17.946602 8.631653 10.199137
v 14.161999 8.631654 7.905040
vn -0.0713 0.0000 -0.9975
vn 0.9975 -0.0005 -0.0713
vn 0.9974 0.0006 -0.0715
vn 0.9974 0.0019 -0.0722
vn 0.9975 0.0000 -0.0713
vn 0.9975 0.0006 -0.0712
vn -0.9975 0.0000 0.0713
vn 0.9975 0.0002 -0.0712
vn 0.9975 0.0001 -0.0713
vn -0.9975 -0.0001 0.0712
vn -0.9975 0.0001 0.0712
vn -0.9974 -0.0004 0.0714
vn -0.9975 -0.0011 0.0708
vn 0.0713 0.0000 0.9975
vn 0.9975 -0.0002 -0.0712
vn 0.9975 0.0001 -0.0712
vn -0.9974 -0.0013 0.0720
vn -0.9975 0.0005 0.0710
vn -0.9974 -0.0006 0.0715
vn -0.9975 -0.0003 0.0712
vn -0.9974 -0.0003 0.0715
vn -0.9974 -0.0013 0.0723
vn 0.9974 0.0000 -0.0719
vn 0.9974 0.0000 -0.0722
vn -0.9971 0.0000 0.0755
vn 0.0000 -1.0000 -0.0000
vn 0.0000 1.0000 0.0000
vn -0.0002 1.0000 -0.0033
vn 0.0712 -0.0000 0.9975
vn 0.0711 -0.0000 0.9975
vn 0.0715 -0.0000 0.9974
vn 0.0714 -0.0000 0.9974
vn -0.0026 1.0000 0.0002
vn 0.4371 0.7474 -0.5004
vn 0.4978 0.7474 0.4400
vn 0.6515 0.7505 -0.1111
vn 0.4147 0.8328 0.3666
vn -0.0291 0.8919 -0.4512
vn -0.0291 0.8920 -0.4512
vn 0.3641 0.8328 -0.4169
vn 0.3642 0.8328 -0.4169
vn 0.0291 0.8919 0.4512
vn 0.0291 0.8920 0.4512
vn 0.6604 0.7505 0.0264
vn 0.7492 0.0000 0.6623
vn -0.0644 0.0000 -0.9979
vn 0.6578 0.0000 -0.7532
vn 0.0644 0.0000 0.9979
vn 0.9992 0.0000 0.0400
vn 0.9858 0.0000 -0.1682
vn 0.7870 0.6162 0.0315
vn -0.0340 0.8492 -0.5270
vn 0.0340 0.8492 0.5270
vn 0.7764 0.6162 -0.1324
vn 0.9533 -0.2956 -0.0616
vn 1.0000 0.0000 0.0000
vn -1.0000 -0.0000 0.0000
vn 0.9979 -0.0000 -0.0644
vn -0.4334 -0.0000 0.9012
vn 0.3623 -0.8753 0.3203
vn 0.9381 -0.0000 0.3465
vn 0.9251 0.0000 0.3797
vn 0.3349 -0.8607 -0.3835
vn 0.9533 0.2956 -0.0616
vn 0.3623 0.8753 0.3203
vn 0.3349 0.8607 -0.3835
vn -0.5852 0.0000 -0.8109
vn 0.8686 -0.0000 -0.4955
vn -0.0000 0.0000 1.0000
vn 0.8445 0.0000 -0.5355
vn 0.9666 -0.0000 0.2562
vn 0.9257 -0.0000 -0.3784
vn 0.0000 0.0000 -1.0000
vn 0.0673 -0.3282 0.9422
vn 0.0234 0.9446 0.3273
vn -0.0234 -0.9446 -0.3273
vn 0.0194 -0.9622 0.2716
vn -0.9422 -0.3282 0.0673
vn -0.3273 0.9446 0.0234
vn 0.3273 -0.9446 -0.0234
vn -0.2716 -0.9622 0.0194
vn -0.6397 0.7672 0.0457
vn -0.6459 0.7621 0.0461
vn -0.6435 0.7641 0.0460
vn 0.6447 -0.7630 -0.0461
vn 0.6472 -0.7609 -0.0462
vn -0.6397 -0.7672 0.0457
vn 0.6397 -0.7672 -0.0457
vn 0.6435 -0.7641 -0.0460
vn -0.6472 -0.7609 0.0462
vn -0.6472 0.7609 0.0462
vn 0.0711 -0.0001 0.9975
vn 0.0711 -0.0002 0.9975
vn 0.6459 0.7621 -0.0461
vn 0.6397 0.7672 -0.0457
vn 0.6435 0.7641 -0.0460
vn 0.6472 0.7609 -0.0462
vn -0.0386 0.8406 -0.5403
vn 0.0386 0.8406 0.5403
vn 0.0390 -0.8368 0.5461
vn -0.0390 -0.8368 -0.5462
vn 0.0380 -0.8459 0.5320
vn -0.0380 -0.8459 -0.5320
vn -0.9422 -0.3281 0.0673
vn 0.0710 -0.0000 0.9975
vn -0.0390 -0.8368 -0.5461
s 1
f 1//1 2//1 3//1
f 5//2 7//3 4//4
f 8//5 6//6 5//2
f 10//7 12//7 13//7
f 6//6 15//5 7//3
f 14//5 17//8 15//5
f 18//5 16//9 14//5
f 20//7 22//10 23//11
f 24//12 11//13 25//7
f 11//13 26//7 25//7
f 28//14 30//14 27//14
f 31//11 32//7 28//7
f 33//7 34//7 35//7
f 20//7 37//11 36//7
f 13//7 36//7 38//7
f 10//7 38//7 39//7
f 8//5 40//5 9//5
f 9//5 41//5 18//5
f 18//5 42//15 19//16
f 26//7 10//7 43//7
f 43//7 39//7 44//7
f 46//17 24//12 45//18
f 11//13 47//19 12//7
f 12//7 48//7 21//7
f 21//7 49//20 22//10
f 51//21 31//11 50//22
f 35//7 54//7 55//7
f 56//7 53//7 35//7
f 31//11 52//7 32//7
f 57//1 58//1 59//1
f 61//23 62//24 60//24
f 46//17 51//21 50//25
f 26//7 53//7 56//7
f 59//5 63//5 64//5
f 25//1 66//1 32//1
f 52//7 25//7 32//7
f 58//1 3//1 59//1
f 54//7 39//7 55//7
f 13//7 21//7 20//7
f 65//7 68//7 66//7
f 26//26 65//26 25//26
f 56//14 67//14 26//14
f 32//27 68//27 56//27
f 32//14 70//14 28//14
f 28//7 27//7 31//11
f 35//7 34//7 56//7
f 30//7 71//7 72//7
f 33//1 71//1 34//1
f 34//28 29//28 28//28
f 70//7 74//7 73//7
f 56//27 69//27 32//27
f 34//1 74//1 56//1
f 39//1 76//1 55//1
f 78//1 80//1 77//1
f 55//1 76//1 81//1
f 76//1 82//1 81//1
f 77//1 83//1 82//1
f 83//1 58//1 57//1
f 39//1 84//1 75//1
f 84//1 78//1 75//1
f 85//1 79//1 78//1
f 86//1 1//1 79//1
f 77//1 75//1 78//1
f 58//1 79//1 1//1
f 63//5 5//2 61//23
f 4//24 61//23 5//2
f 63//5 3//5 8//5
f 88//26 90//26 87//26
f 91//14 92//14 87//14
f 93//14 91//14 94//14
f 95//29 46//30 50//30
f 62//31 90//32 97//31
f 50//30 98//29 95//29
f 93//14 95//29 98//29
f 90//32 100//14 87//14
f 46//30 96//29 101//29
f 102//14 101//29 96//29
f 90//32 4//31 99//32
f 94//14 96//29 95//29
f 104//7 106//7 107//7
f 93//14 104//14 91//14
f 108//31 62//31 109//31
f 111//14 88//14 110//14
f 89//7 97//7 90//7
f 97//27 110//27 92//27
f 110//5 87//5 92//5
f 107//7 113//7 92//7
f 62//31 97//31 109//31
f 87//14 103//14 102//14
f 94//14 87//14 102//14
f 107//14 92//14 91//14
f 104//14 107//14 91//14
f 114//14 106//14 105//14
f 109//5 114//5 108//5
f 106//33 109//33 107//33
f 116//14 113//14 112//14
f 97//5 116//5 109//5
f 113//27 97//27 92//27
f 43//7 54//7 53//7
f 51//21 24//12 52//7
f 14//5 9//5 18//5
f 118//34 120//34 121//34
f 122//34 121//34 123//34
f 125//35 127//35 124//35
f 128//36 129//36 130//36
f 131//37 133//37 124//37
f 124//37 134//37 125//37
f 135//38 137//39 122//38
f 119//40 138//40 129//40
f 118//40 137//41 138//40
f 139//42 134//43 140//43
f 128//44 132//44 131//44
f 142//45 127//45 141//45
f 141//45 126//45 144//45
f 146//46 123//46 145//46
f 149//47 120//47 148//47
f 145//47 121//47 149//47
f 144//48 151//48 150//48
f 152//49 143//49 142//49
f 148//50 153//50 152//50
f 131//51 153//51 128//51
f 124//35 143//35 131//35
f 135//52 123//52 147//52
f 139//53 126//53 125//53
f 119//54 153//54 120//54
f 141//26 154//26 155//26
f 145//26 157//26 146//26
f 148//26 159//26 149//26
f 152//26 160//26 161//26
f 149//26 156//26 145//26
f 144//26 162//26 154//26
f 142//26 155//26 160//26
f 152//26 158//26 148//26
f 163//45 165//45 166//45
f 164//48 169//48 167//48
f 171//55 173//55 170//55
f 174//47 176//47 177//47
f 178//56 179//56 170//56
f 180//57 181//57 166//57
f 182//58 171//58 170//58
f 166//59 185//59 180//59
f 166//60 186//60 184//60
f 177//61 189//61 187//61
f 170//62 190//62 178//62
f 176//63 188//63 177//63
f 193//64 194//64 192//64
f 179//58 182//58 170//58
f 178//58 192//58 195//58
f 197//65 198//65 196//65
f 180//45 196//45 167//45
f 181//45 163//45 166//45
f 187//47 201//47 199//47
f 202//47 174//47 177//47
f 201//66 189//66 203//66
f 176//67 203//67 191//67
f 171//68 194//68 172//68
f 164//69 167//69 165//69
f 183//57 195//57 171//57
f 165//70 198//70 186//70
f 187//46 205//46 202//46
f 180//71 183//71 181//71
f 178//72 175//72 179//72
f 175//73 199//73 176//73
f 173//58 194//58 190//58
f 184//45 198//45 185//45
f 188//47 203//47 189//47
f 207//5 209//5 206//5
f 211//74 213//74 210//74
f 214//7 216//7 217//7
f 218//75 219//75 220//75
f 221//75 216//75 215//75
f 221//75 220//75 222//75
f 224//5 226//5 223//5
f 224//76 228//76 227//76
f 208//74 230//74 209//74
f 229//74 210//74 230//74
f 210//76 227//76 230//76
f 230//76 206//76 209//76
f 229//75 221//75 211//75
f 211//75 215//75 212//75
f 229//75 207//75 218//75
f 213//76 224//76 210//76
f 212//7 214//7 213//7
f 219//5 206//5 231//5
f 214//77 225//77 224//77
f 214//7 233//7 232//7
f 206//77 234//77 235//77
f 206//5 236//5 231//5
f 227//7 237//7 234//7
f 238//14 240//14 241//14
f 243//78 245//78 242//78
f 247//1 249//1 246//1
f 250//79 251//79 252//79
f 253//79 248//79 247//79
f 250//79 254//79 253//79
f 256//14 258//14 255//14
f 256//80 260//80 259//80
f 240//78 262//78 241//78
f 261//78 242//78 262//78
f 242//80 259//80 262//80
f 262//80 238//80 241//80
f 261//79 253//79 243//79
f 243//79 247//79 244//79
f 240//79 250//79 261//79
f 245//80 256//80 242//80
f 244//1 246//1 245//1
f 263//14 239//14 238//14
f 256//81 264//81 257//81
f 246//1 265//1 264//1
f 259//81 267//81 238//81
f 238//14 268//14 263//14
f 259//1 269//1 266//1
f 271//7 273//7 270//7
f 274//5 276//5 277//5
f 279//82 281//83 278//84
f 271//85 283//86 272//86
f 285//14 287//14 284//14
f 285//14 289//14 286//14
f 290//87 288//87 285//87
f 278//84 286//82 279//82
f 290//88 284//89 271//85
f 292//5 294//5 291//5
f 282//7 296//7 283//7
f 282//7 298//7 295//7
f 294//5 300//5 291//5
f 284//14 298//14 297//14
f 288//90 291//90 300//90
f 288//14 299//14 289//14
f 278//84 298//91 287//84
f 276//90 292//90 291//90
f 278//84 296//91 295//91
f 271//85 297//86 282//86
f 301//14 303//92 304//14
f 306//14 308//14 305//14
f 309//14 311//14 312//14
f 311//14 305//14 312//14
f 314//93 316//14 313//14
f 316//14 302//30 301//14
f 310//14 316//14 311//14
f 301//14 307//14 306//14
f 311//14 301//14 306//14
f 317//94 319//95 320//96
f 321//96 323//97 320//96
f 319//95 321//96 320//96
f 320//96 325//97 317//94
f 327//98 329//98 326//98
f 331//99 328//99 330//99
f 332//100 334//100 335//100
f 334//101 337//101 336//101
f 330//102 337//102 331//102
f 326//103 335//103 327//103
f 330//7 334//7 336//7
f 331//5 333//5 329//5
f 326//5 333//5 332//5
f 327//7 334//7 328//7
f 5//2 6//6 7//3
f 8//5 9//5 6//6
f 10//7 11//13 12//7
f 6//6 14//5 15//5
f 14//5 16//9 17//8
f 18//5 19//16 16//9
f 20//7 21//7 22//10
f 11//13 10//7 26//7
f 28//14 29//14 30//14
f 20//7 23//11 37//11
f 13//7 20//7 36//7
f 10//7 13//7 38//7
f 8//5 3//5 40//5
f 9//5 40//5 41//5
f 18//5 41//5 42//15
f 43//7 10//7 39//7
f 46//17 11//13 24//12
f 11//13 46//17 47//19
f 12//7 47//19 48//7
f 21//7 48//7 49//20
f 51//21 52//7 31//11
f 35//7 53//7 54//7
f 61//23 4//24 62//24
f 46//17 45//18 51//21
f 26//7 43//7 53//7
f 59//5 3//5 63//5
f 25//1 65//1 66//1
f 52//7 24//12 25//7
f 58//1 1//1 3//1
f 54//7 44//7 39//7
f 13//7 12//7 21//7
f 65//7 67//7 68//7
f 26//26 67//26 65//26
f 56//14 68//14 67//14
f 32//27 66//27 68//27
f 32//14 69//14 70//14
f 30//7 29//7 71//7
f 33//1 72//1 71//1
f 34//28 71//28 29//28
f 70//7 69//7 74//7
f 56//27 74//27 69//27
f 34//1 73//1 74//1
f 39//1 75//1 76//1
f 78//1 79//1 80//1
f 76//1 77//1 82//1
f 77//1 80//1 83//1
f 83//1 80//1 58//1
f 84//1 85//1 78//1
f 85//1 86//1 79//1
f 86//1 2//1 1//1
f 77//1 76//1 75//1
f 58//1 80//1 79//1
f 63//5 8//5 5//2
f 88//26 89//26 90//26
f 95//29 96//29 46//30
f 62//31 4//31 90//32
f 93//14 94//14 95//29
f 90//32 99//32 100//14
f 102//14 103//14 101//29
f 94//14 102//14 96//29
f 104//7 105//7 106//7
f 111//14 89//14 88//14
f 89//7 111//7 97//7
f 97//27 111//27 110//27
f 110//5 88//5 87//5
f 107//7 112//7 113//7
f 87//14 100//14 103//14
f 94//14 91//14 87//14
f 114//14 115//14 106//14
f 109//5 115//5 114//5
f 106//33 115//33 109//33
f 116//14 117//14 113//14
f 97//5 117//5 116//5
f 113//27 117//27 97//27
f 43//7 44//7 54//7
f 51//21 45//18 24//12
f 14//5 6//6 9//5
f 118//34 119//34 120//34
f 122//34 118//34 121//34
f 125//35 126//35 127//35
f 128//36 119//36 129//36
f 131//37 132//37 133//37
f 124//37 133//37 134//37
f 135//38 136//39 137//39
f 119//40 118//40 138//40
f 118//40 122//40 137//41
f 139//42 125//42 134//43
f 128//44 130//44 132//44
f 142//45 143//45 127//45
f 141//45 127//45 126//45
f 146//46 147//46 123//46
f 149//47 121//47 120//47
f 145//47 123//47 121//47
f 144//48 126//48 151//48
f 152//49 153//49 143//49
f 148//50 120//50 153//50
f 131//51 143//51 153//51
f 124//35 127//35 143//35
f 135//52 122//52 123//52
f 139//53 151//53 126//53
f 119//54 128//54 153//54
f 141//26 144//26 154//26
f 145//26 156//26 157//26
f 148//26 158//26 159//26
f 152//26 142//26 160//26
f 149//26 159//26 156//26
f 144//26 150//26 162//26
f 142//26 141//26 155//26
f 152//26 161//26 158//26
f 163//45 164//45 165//45
f 164//48 168//48 169//48
f 171//55 172//55 173//55
f 174//47 175//47 176//47
f 182//58 183//58 171//58
f 166//59 184//59 185//59
f 166//60 165//60 186//60
f 177//61 188//61 189//61
f 170//62 173//62 190//62
f 176//63 191//63 188//63
f 193//64 190//64 194//64
f 178//58 193//58 192//58
f 197//65 185//65 198//65
f 180//45 197//45 196//45
f 187//47 200//47 201//47
f 201//66 200//66 189//66
f 176//67 199//67 203//67
f 171//68 195//68 194//68
f 165//70 167//70 198//70
f 187//46 204//46 205//46
f 180//71 195//71 183//71
f 178//72 199//72 175//72
f 173//58 172//58 194//58
f 184//45 186//45 198//45
f 188//47 191//47 203//47
f 207//5 208//5 209//5
f 211//74 212//74 213//74
f 214//7 215//7 216//7
f 218//75 207//75 219//75
f 221//75 222//75 216//75
f 221//75 218//75 220//75
f 224//5 225//5 226//5
f 224//76 223//76 228//76
f 208//74 229//74 230//74
f 229//74 211//74 210//74
f 210//76 224//76 227//76
f 230//76 227//76 206//76
f 229//75 218//75 221//75
f 211//75 221//75 215//75
f 229//75 208//75 207//75
f 213//76 214//76 224//76
f 212//7 215//7 214//7
f 219//5 207//5 206//5
f 214//77 232//77 225//77
f 214//7 217//7 233//7
f 206//77 227//77 234//77
f 206//5 235//5 236//5
f 227//7 228//7 237//7
f 238//14 239//14 240//14
f 243//78 244//104 245//78
f 247//1 248//1 249//1
f 250//79 239//79 251//79
f 253//79 254//79 248//79
f 250//79 252//79 254//79
f 256//14 257//14 258//14
f 256//80 255//80 260//80
f 240//78 261//78 262//78
f 261//78 243//78 242//78
f 242//80 256//80 259//80
f 262//80 259//80 238//80
f 261//79 250//79 253//79
f 243//79 253//79 247//79
f 240//79 239//79 250//79
f 245//80 246//80 256//80
f 244//1 247//1 246//1
f 263//14 251//14 239//14
f 256//81 246//81 264//81
f 246//1 249//1 265//1
f 259//81 266//81 267//81
f 238//14 267//14 268//14
f 259//1 260//1 269//1
f 271//7 272//7 273//7
f 274//5 275//5 276//5
f 279//82 280//82 281//83
f 271//85 282//86 283//86
f 285//14 286//14 287//14
f 285//14 288//14 289//14
f 290//87 276//87 288//87
f 278//84 287//84 286//82
f 290//88 285//88 284//89
f 292//5 293//5 294//5
f 282//7 295//7 296//7
f 282//7 297//7 298//7
f 294//5 299//5 300//5
f 284//14 287//14 298//14
f 288//90 276//90 291//90
f 288//14 300//14 299//14
f 278//84 295//91 298//91
f 276//90 275//90 292//90
f 278//84 281//83 296//91
f 271//85 284//89 297//86
f 301//14 302//30 303//92
f 306//14 307//14 308//14
f 309//14 310//14 311//14
f 311//14 306//14 305//14
f 314//93 315//105 316//14
f 316//14 315//105 302//30
f 310//14 313//14 316//14
f 301//14 304//14 307//14
f 311//14 316//14 301//14
f 317//94 318//95 319//95
f 321//96 322//97 323//97
f 319//95 324//95 321//96
f 320//96 323//97 325//97
f 327//98 328//98 329//98
f 331//99 329//99 328//99
f 332//100 333//100 334//100
f 334//101 333//106 337//101
f 330//102 336//102 337//102
f 326//103 332//103 335//103
f 330//7 328//7 334//7
f 331//5 337//5 333//5
f 326//5 329//5 333//5
f 327//7 335//7 334//7
